<?xml version="1.0" encoding="utf-8"?>
<!-- Generator: Adobe Illustrator 27.9.0, SVG Export Plug-In . SVG Version: 6.00 Build 0)  -->
<svg version="1.1" id="Layer_1" xmlns="http://www.w3.org/2000/svg" xmlns:xlink="http://www.w3.org/1999/xlink" x="0px" y="0px"
	 viewBox="0 0 1185.88 362" style="enable-background:new 0 0 1185.88 362;" xml:space="preserve">
<style type="text/css">
	.st0{fill:#FFFFFF;}
	.st1{fill:#D0A02B;}
</style>
<g>
	<g>
		<g>
			<path class="st0" d="M982.76,117.19c-29.07-29.18-73.98-26.98-98.55-26.98c-14.5,0-30.13,0.56-32.89,0.56
				c-1.24,0-12.93-0.39-23.27-0.51c-0.45,0-0.84-0.05-1.24-0.05c-0.62,0-1.24,0-1.86,0.05c-0.73-0.05-1.46-0.05-2.14-0.05
				c-0.45,0-0.79,0.05-1.18,0.11c-7.59,0.11-13.44,0.45-15.74,0.45c-2.75,0-14.5-0.56-25.63-0.56c-2.75,0-4.72,0.34-4.72,1.69
				c0,0.84,0.28,2.25,1.97,2.25c1.91,0,7.48,0.28,11.97,1.07c7.48,1.41,8.88,6.69,9.16,21.98l2.53,118.29
				c-7.53-7.81-33.73-35.87-57.96-60.83c-37.89-38.9-73.54-76.63-77.47-80.5c-2.47-2.53-6.63-7.25-9.44-7.25
				c-1.97,0-3.37,2.53-3.37,11.97v135.21c0,12.82-0.28,20.18-1.85,24.46c-3.71-3.54-7.93-9.61-12.82-20.86
				c-15.46-35.81-55.83-133.3-60.38-143.25c-2.59-5.29-3.43-8.6-6.02-8.6c-1.74,0-2.87,1.35-6.01,9.16l-59.26,147.69
				c-0.9,2.08-1.74,4.05-2.64,5.96c-6.18,5.12-16.53,8.21-38.51,8.21h-74.72c41.77-63.87,83.26-127.73,123.06-191.6
				c1.13-1.69,1.13-2.19,1.13-3.32c0-1.69-1.41-2.25-5.51-2.25h-76.63c-8.55,0-21.7,0.28-47.79-0.84
				c-7.42-0.23-9.11-1.91-11.58-1.91c-1.63,0-2.19,1.35-2.75,5.28c-1.35,8.32-5.45,33.56-5.45,36.94c0,2.19,0.28,3.6,1.63,3.6
				c1.35,0,2.47-0.84,3.04-5c0.79-6.41,5.79-16.7,15.63-21.92c8.83-4.72,25.58-5.57,39.58-5.57h59.59
				c-38.17,62.74-79.66,125.2-120.59,187.66c-3.26,5-3.82,6.41-3.82,7.81c0,0.51,0.11,0.9,0.34,1.18h171.75c0,0,0-0.06,0-0.11
				c0-1.07-0.56-1.91-2.59-1.91h-2.25c-4.33,0-8.6-1.69-8.6-6.41c0-4.16,1.41-9.95,3.71-15.8l14.28-37.78
				c0.62-1.35,1.46-1.91,2.59-1.91h58.13c1.46,0,1.74,0.23,2.3,1.35l22.6,54.14c1.74,3.88-0.84,5.85-2.3,6.41
				c-1.13,0.56-1.69,0.56-1.69,1.69c0,0.11,0,0.23,0.11,0.34h73.31c0,0,0-0.06,0-0.11c0-1.07-0.84-1.91-1.91-1.91
				c-2.25,0-7.82-0.28-12.26-1.41c-6.69-1.69-8.94-7.48-9.5-26.93l-2.75-111.31c7.48,8.32,35.08,37.16,63.47,66.9
				c25.92,26.93,61.34,61.62,63.81,63.86c5.85,5.34,9.67,8.77,12.31,10.91c3.49,2.87,4.89,3.54,6.35,3.54
				c0.96,0,1.46-0.45,1.69-3.54c0.23-2.42,0.28-6.58,0.28-13.44L814,115.22c0-14.17,0.56-18.89,8.66-20.58
				c0.9-0.17,1.74-0.28,2.53-0.34c1.57,0.11,3.09,0.22,4.05,0.34c8.1,1.12,9.5,5.06,10.06,13.1c0.56,7.48,0.56,14.17,0.56,50.77
				v41.66c0,22.77,0,41.38-1.41,51.1c-1.12,6.97-1.69,11.36-6.41,12.48c-2.25,0.56-5.28,1.12-7.53,1.12c-1.41,0-1.97,1.12-1.97,1.91
				c0,0.06,0,0.11,0,0.11c0.06,1.35,1.46,1.85,3.94,1.85c3.88,0,9.78-0.28,14.78-0.56c5,0,9.45-0.28,10.06-0.28
				c1.07,0,9.45,0.56,20.07,1.41c10.62,0.56,23.72,1.41,34.29,1.41c12.54,0,23.22-1.46,32.44-3.82
				c21.59-5.45,34.69-15.8,42.11-23.39c13.66-13.89,26.54-36.65,26.54-66.39C1006.77,149.12,995.02,129.39,982.76,117.19z
				 M593.9,193.26h-50.99c-0.84,0-1.13-0.56-0.84-1.69l23.5-64.65c1.41-3.65,2.87-3.65,4.27,0l24.9,64.65
				C595.02,192.69,595.02,193.26,593.9,193.26z M963.48,240.42c-14.79,13.89-34.86,21.36-57.51,21.36c-29.01,0-37.67-4.95-40.7-9.39
				c-1.97-2.53-2.53-11.13-2.81-16.92c-0.28-4.5-0.28-26.42-0.28-51.38v-78.88c0-2.75,0.84-3.88,3.09-4.72
				c2.19-0.79,10.01-1.63,14.79-1.63c29.29,0,56.33,3.04,79.55,26.37c10.06,10.01,23.16,29.12,23.16,59.14
				C982.76,206.02,976.3,228.5,963.48,240.42z"/>
		</g>
		<g>
			<path class="st0" d="M1157.89,264.88c-2.53,0-6.18-0.28-9.78-1.41c-5.28-1.69-12.03-4.72-20.91-25.8
				c-15.07-35.81-54.42-133.3-58.86-143.25c-2.53-5.29-3.37-8.6-5.85-8.6c-1.69,0-2.81,1.35-5.9,9.16l-57.74,147.69
				c-4.72,11.92-9.44,20.24-20.63,21.64c-1.97,0.28-5.57,0.56-7.25,0.56c-1.12,0-2.25,0.84-2.25,1.91c0,0.06,0,0.11,0.06,0.11h55.21
				c0,0,0-0.06,0-0.11c0-1.07-0.56-1.91-2.53-1.91h-2.25c-4.16,0-8.32-1.69-8.32-6.41c0-4.16,1.35-9.95,3.6-15.8l13.94-37.78
				c0.56-1.35,1.41-1.91,2.53-1.91h56.61c1.41,0,1.69,0.23,2.25,1.35l22.04,54.14c1.63,3.88-0.84,5.85-2.25,6.41
				c-1.12,0.56-1.69,0.56-1.69,1.69c0,0.11,0.06,0.23,0.11,0.34h52.9c0,0,0-0.06,0-0.11
				C1160.92,265.44,1159.24,264.88,1157.89,264.88z M1083.9,193.26h-49.64c-0.79,0-1.12-0.56-0.79-1.69l22.88-64.65
				c1.35-3.65,2.75-3.65,4.16,0l24.29,64.65C1085.03,192.69,1085.03,193.26,1083.9,193.26z"/>
		</g>
		<g>
			<path class="st0" d="M387.24,319.13c-0.56,0-1.24-0.05-1.91-0.17c-0.9-0.23-2.19-0.79-3.94-4.61
				c-2.81-6.41-9.95-23.67-11.02-26.03c-0.45-0.96-0.73-1.35-1.13-1.35c-0.45,0-0.73,0.51-1.24,1.69l-11.19,26.59
				c-0.9,2.14-1.74,3.54-3.82,3.82c-0.34,0-0.96,0.05-1.35,0.05c-0.39,0-0.56,0.11-0.56,0.34c0,0.34,0.28,0.45,0.84,0.45
				c2.31,0,4.78-0.17,5.29-0.17c1.35,0,3.26,0.17,4.72,0.17c0.51,0,0.73-0.11,0.73-0.45c0-0.23-0.11-0.34-0.68-0.34h-0.62
				c-1.41,0-1.8-0.56-1.8-1.29c0-0.51,0.23-1.52,0.68-2.59l2.42-6.07c0.06-0.23,0.17-0.34,0.39-0.34h9.95
				c0.17,0,0.34,0.11,0.39,0.34l3.6,8.94c0.22,0.51-0.11,0.9-0.39,0.96c-0.45,0.05-0.62,0.17-0.62,0.39c0,0.28,0.51,0.28,1.29,0.34
				c3.6,0.11,6.86,0.11,8.43,0.11c1.69,0,2.08-0.11,2.08-0.45C387.8,319.19,387.57,319.13,387.24,319.13z M372.11,306.76h-8.15
				c-0.23,0-0.23-0.17-0.23-0.34l4.1-10.4c0.06-0.17,0.17-0.39,0.28-0.39s0.17,0.23,0.23,0.39l3.99,10.46
				C372.39,306.59,372.34,306.76,372.11,306.76z"/>
			<path class="st0" d="M426.87,319.13c-0.34,0-0.73-0.05-1.24-0.11c-0.67-0.11-2.47-0.45-5-2.87c-2.64-2.64-5.68-6.41-9.67-11.13
				c4.5-3.49,5.9-6.35,5.9-9.5c0-2.81-1.8-5-3.04-5.79c-2.42-1.57-5.4-1.8-8.21-1.8c-1.41,0-4.78,0.11-6.3,0.11
				c-0.96,0-3.77-0.11-6.13-0.11c-0.67,0-0.96,0.06-0.96,0.39c0,0.28,0.28,0.34,0.73,0.34c0.67,0,1.41,0.06,1.74,0.17
				c1.46,0.28,1.86,0.96,1.91,2.36c0.11,1.41,0.11,2.59,0.11,8.99v7.42c0,3.94,0,7.25-0.23,9.05c-0.17,1.24-0.39,2.14-1.29,2.31
				c-0.39,0.11-0.96,0.17-1.57,0.17c-0.56,0-0.73,0.11-0.73,0.34c0,0.28,0.28,0.45,0.9,0.45c1.74,0,4.55-0.17,5.4-0.17
				c0.68,0,3.99,0.17,6.58,0.17c0.56,0,0.9-0.17,0.9-0.45c0-0.23-0.17-0.34-0.56-0.34c-0.51,0-1.52-0.05-2.14-0.17
				c-1.35-0.17-1.63-1.07-1.74-2.31c-0.23-1.8-0.23-5.12-0.23-9.05v-0.62c0-0.23,0.11-0.34,0.34-0.34l3.88,0.11
				c0.34,0,0.56,0,0.79,0.28c0.62,0.62,2.64,3.49,4.44,5.85c2.47,3.26,4.16,5.23,6.07,6.18c1.18,0.62,2.3,0.84,4.78,0.84h4.27
				c0.51,0,0.84-0.11,0.84-0.45C427.43,319.24,427.26,319.13,426.87,319.13z M408.94,304.01c-0.79,0.56-1.35,0.73-3.15,0.73
				c-1.12,0-2.47-0.17-3.37-0.45c-0.34-0.11-0.39-0.28-0.39-0.79v-12.82c0-0.34,0.06-0.51,0.39-0.62c0.45-0.11,1.24-0.17,2.36-0.17
				c2.64,0,6.8,1.74,6.8,7.76C411.58,301.14,410.29,303.05,408.94,304.01z"/>
			<path class="st0" d="M460.15,312.05c-0.34,0-0.45,0.17-0.56,0.84c-0.17,0.73-0.73,1.97-1.52,2.75c-1.8,1.97-4.16,2.42-8.15,2.42
				c-5.96,0-14.05-5-14.05-15.07c0-4.1,0.84-8.15,4.1-10.96c1.97-1.69,4.5-2.64,8.38-2.64c4.1,0,7.59,1.12,9.05,2.64
				c1.12,1.07,1.69,2.59,1.74,3.88c0,0.62,0.11,0.96,0.45,0.96c0.39,0,0.51-0.34,0.56-1.01c0.06-0.84,0-3.15,0.11-4.55
				c0.11-1.46,0.23-1.97,0.23-2.3c0-0.28-0.17-0.51-0.67-0.51c-1.35-0.17-2.75-0.51-4.44-0.73c-2.08-0.28-3.71-0.45-6.47-0.45
				c-6.63,0-10.91,1.69-14.11,4.5c-4.27,3.71-5.23,8.71-5.23,11.58c0,4.1,1.18,8.83,5.57,12.48c4.05,3.37,9.16,4.61,15.29,4.61
				c2.81,0,6.24-0.28,7.98-0.96c0.79-0.28,0.96-0.51,1.18-1.24c0.45-1.46,1.01-5.12,1.01-5.62
				C460.6,312.33,460.49,312.05,460.15,312.05z"/>
			<path class="st0" d="M507.32,319.13c-0.68,0-1.63-0.05-2.25-0.17c-1.35-0.17-1.63-1.07-1.74-2.31c-0.23-1.8-0.23-5.12-0.23-9.05
				v-7.42c0-6.41,0-7.59,0.06-8.99c0.11-1.46,0.45-2.19,1.69-2.36c0.51-0.11,0.9-0.17,1.29-0.17c0.51,0,0.79-0.06,0.79-0.34
				c0-0.34-0.28-0.39-0.96-0.39c-1.69,0-4.5,0.11-5.57,0.11c-1.24,0-4.05-0.11-6.46-0.11c-0.62,0-0.9,0.06-0.9,0.39
				c0,0.28,0.23,0.34,0.73,0.34c0.62,0,1.41,0.06,1.74,0.17c1.46,0.28,1.86,0.96,1.91,2.36c0.11,1.41,0.11,2.59,0.11,8.99v0.9
				c0,0.23-0.17,0.28-0.28,0.28h-17.03c-0.11,0-0.28-0.06-0.28-0.28v-0.9c0-6.41,0-7.59,0.11-8.99c0.06-1.46,0.45-2.19,1.63-2.36
				c0.56-0.11,0.96-0.17,1.29-0.17c0.56,0,0.79-0.06,0.79-0.34c0-0.34-0.28-0.39-0.9-0.39c-1.74,0-4.55,0.11-5.62,0.11
				c-1.24,0-3.99-0.11-6.41-0.11c-0.62,0-0.96,0.06-0.96,0.39c0,0.28,0.28,0.34,0.79,0.34c0.62,0,1.35,0.06,1.69,0.17
				c1.52,0.28,1.85,0.96,1.97,2.36c0.06,1.41,0.06,2.59,0.06,8.99v7.42c0,3.94,0,7.25-0.23,9.05c-0.17,1.24-0.39,2.14-1.29,2.31
				c-0.39,0.11-0.9,0.17-1.57,0.17c-0.56,0-0.73,0.11-0.73,0.34c0,0.28,0.28,0.45,0.9,0.45c1.8,0,4.55-0.17,5.62-0.17
				c1.24,0,4.05,0.17,6.91,0.17c0.56,0,0.9-0.17,0.9-0.45c0-0.23-0.23-0.34-0.67-0.34c-0.68,0-1.69-0.05-2.31-0.17
				c-1.35-0.17-1.57-1.07-1.74-2.31c-0.23-1.8-0.23-5.12-0.23-9.05v-3.71c0-0.23,0.17-0.23,0.28-0.23h17.03
				c0.11,0,0.28,0.06,0.28,0.23v3.71c0,3.94,0,7.25-0.23,9.05c-0.17,1.24-0.39,2.14-1.29,2.31c-0.39,0.11-0.96,0.17-1.63,0.17
				c-0.51,0-0.67,0.11-0.67,0.34c0,0.28,0.28,0.45,0.9,0.45c1.74,0,4.55-0.17,5.57-0.17c1.29,0,4.1,0.17,6.97,0.17
				c0.56,0,0.9-0.17,0.9-0.45C508.05,319.24,507.83,319.13,507.32,319.13z"/>
			<path class="st0" d="M531.78,319.13c-0.68,0-1.69-0.05-2.31-0.17c-1.35-0.17-1.63-0.9-1.8-2.08c-0.17-1.8-0.17-5.17-0.17-9.28
				v-7.42c0-6.41,0-7.59,0.11-8.99c0.06-1.46,0.45-2.19,1.63-2.36c0.56-0.11,0.9-0.17,1.35-0.17c0.45,0,0.73-0.06,0.73-0.39
				c0-0.28-0.39-0.34-0.96-0.34c-1.69,0-4.33,0.11-5.45,0.11c-1.29,0-4.1-0.11-5.79-0.11c-0.73,0-1.07,0.06-1.07,0.34
				c0,0.34,0.28,0.39,0.73,0.39c0.51,0,1.12,0.06,1.57,0.17c1.01,0.23,1.46,0.96,1.52,2.36c0.11,1.41,0.11,2.59,0.11,8.99v7.42
				c0,4.1,0,7.48-0.22,9.22c-0.11,1.24-0.39,1.97-1.29,2.14c-0.39,0.11-0.96,0.17-1.63,0.17c-0.51,0-0.68,0.11-0.68,0.34
				c0,0.28,0.28,0.45,0.9,0.45c1.74,0,4.55-0.17,5.57-0.17c1.24,0,4.05,0.17,6.97,0.17c0.51,0,0.84-0.17,0.84-0.45
				C532.45,319.24,532.22,319.13,531.78,319.13z"/>
			<path class="st0" d="M569.5,287.65c-0.17,0-0.51,0.06-1.18,0.17c-0.68,0.11-1.69,0.23-3.09,0.23h-17.65
				c-1.46,0-3.15-0.06-4.44-0.23c-1.13-0.06-1.57-0.51-1.91-0.51c-0.28,0-0.45,0.28-0.56,0.84c-0.11,0.34-0.96,4.16-0.96,4.83
				c0,0.45,0.11,0.68,0.45,0.68c0.22,0,0.39-0.17,0.45-0.51c0.11-0.34,0.34-0.84,0.79-1.46c0.67-0.96,1.74-1.18,4.33-1.24l6.63-0.17
				v17.32c0,3.94,0,7.25-0.23,9.05c-0.17,1.24-0.39,2.14-1.29,2.31c-0.39,0.11-0.96,0.17-1.63,0.17c-0.51,0-0.67,0.11-0.67,0.34
				c0,0.28,0.28,0.45,0.84,0.45c1.8,0,4.61-0.17,5.62-0.17c1.29,0,4.1,0.17,7.03,0.17c0.51,0,0.84-0.17,0.84-0.45
				c0-0.23-0.22-0.34-0.73-0.34c-0.68,0-1.63-0.05-2.25-0.17c-1.35-0.17-1.63-1.07-1.74-2.31c-0.23-1.8-0.23-5.12-0.23-9.05v-17.32
				l5.62,0.11c3.94,0.11,5.17,1.29,5.23,2.36l0.06,0.51c0.06,0.62,0.17,0.84,0.51,0.84c0.28,0,0.34-0.28,0.39-0.67
				c0-1.12,0.17-4.05,0.17-4.95C569.89,287.87,569.84,287.65,569.5,287.65z"/>
			<path class="st0" d="M599.97,313.45c-0.28,0-0.39,0.17-0.45,0.67c-0.34,1.69-0.84,2.59-2.02,3.09c-1.18,0.51-3.04,0.51-4.22,0.51
				c-4.5,0-5.23-0.62-5.34-3.54v-9.89c0-0.23,0.06-0.45,0.28-0.45c1.07,0,5.51,0.05,6.35,0.17c1.63,0.17,2.25,0.79,2.47,1.63
				c0.11,0.56,0.11,1.12,0.17,1.52c0,0.23,0.11,0.39,0.39,0.39c0.45,0,0.45-0.45,0.45-0.79c0-0.34,0.11-2.02,0.17-2.87
				c0.17-2.14,0.34-2.81,0.34-3.09c0-0.23-0.11-0.34-0.28-0.34c-0.22,0-0.45,0.23-0.73,0.56c-0.39,0.45-1.07,0.56-2.14,0.62
				c-1.01,0.11-6.18,0.11-7.14,0.11c-0.28,0-0.34-0.17-0.34-0.45v-10.74c0-0.28,0.11-0.39,0.34-0.39c0.9,0,5.57,0.06,6.3,0.17
				c2.25,0.23,2.7,0.73,3.04,1.52c0.23,0.51,0.23,1.24,0.23,1.52c0,0.39,0.11,0.56,0.45,0.56c0.28,0,0.39-0.22,0.39-0.45
				c0.11-0.51,0.23-2.36,0.23-2.81c0.17-1.91,0.39-2.42,0.39-2.7c0-0.23-0.05-0.39-0.28-0.39s-0.51,0.11-0.73,0.17
				c-0.34,0.06-1.07,0.17-1.91,0.23c-0.84,0.06-9.73,0.06-11.13,0.06c-0.62,0-1.63-0.06-2.81-0.06c-1.12,0-2.42-0.06-3.6-0.06
				c-0.67,0-1.01,0.06-1.01,0.39c0,0.28,0.28,0.34,0.79,0.34c0.62,0,1.35,0.06,1.74,0.17c1.46,0.28,1.8,0.96,1.91,2.36
				c0.06,1.41,0.06,2.59,0.06,8.99v7.42c0,3.94,0,7.25-0.23,9.05c-0.17,1.24-0.39,2.14-1.29,2.31c-0.39,0.11-0.9,0.17-1.57,0.17
				c-0.56,0-0.73,0.11-0.73,0.34c0,0.28,0.34,0.45,0.9,0.45c0.9,0,2.08-0.11,3.09-0.11c1.07-0.06,2.02-0.06,2.53-0.06
				c1.35,0,2.7,0.06,4.61,0.17c1.97,0,4.38,0.11,7.76,0.11c1.69,0,2.08,0,2.36-1.12c0.23-0.84,0.62-3.71,0.62-4.67
				C600.36,313.79,600.36,313.45,599.97,313.45z"/>
			<path class="st0" d="M640.5,312.05c-0.34,0-0.45,0.17-0.56,0.84c-0.17,0.73-0.79,1.97-1.52,2.75c-1.8,1.97-4.22,2.42-8.15,2.42
				c-6.02,0-14.05-5-14.05-15.07c0-4.1,0.84-8.15,4.1-10.96c1.97-1.69,4.5-2.64,8.38-2.64c4.1,0,7.59,1.12,9.05,2.64
				c1.12,1.07,1.69,2.59,1.74,3.88c0,0.62,0.11,0.96,0.45,0.96c0.39,0,0.51-0.34,0.51-1.01c0.11-0.84,0.06-3.15,0.17-4.55
				c0.06-1.46,0.23-1.97,0.23-2.3c0-0.28-0.17-0.51-0.68-0.51c-1.35-0.17-2.75-0.51-4.5-0.73c-2.02-0.28-3.66-0.45-6.41-0.45
				c-6.69,0-10.91,1.69-14.11,4.5c-4.27,3.71-5.23,8.71-5.23,11.58c0,4.1,1.18,8.83,5.51,12.48c4.1,3.37,9.22,4.61,15.29,4.61
				c2.87,0,6.24-0.28,8.04-0.96c0.79-0.28,0.96-0.51,1.18-1.24c0.45-1.46,0.96-5.12,0.96-5.62
				C640.9,312.33,640.84,312.05,640.5,312.05z"/>
			<path class="st0" d="M677.61,287.65c-0.17,0-0.56,0.06-1.24,0.17c-0.68,0.11-1.63,0.23-3.04,0.23h-17.65
				c-1.52,0-3.2-0.06-4.5-0.23c-1.12-0.06-1.52-0.51-1.91-0.51c-0.28,0-0.39,0.28-0.51,0.84c-0.11,0.34-0.96,4.16-0.96,4.83
				c0,0.45,0.11,0.68,0.39,0.68c0.28,0,0.39-0.17,0.51-0.51c0.06-0.34,0.28-0.84,0.73-1.46c0.67-0.96,1.74-1.18,4.33-1.24l6.63-0.17
				v17.32c0,3.94,0,7.25-0.23,9.05c-0.11,1.24-0.39,2.14-1.29,2.31c-0.39,0.11-0.9,0.17-1.57,0.17c-0.56,0-0.73,0.11-0.73,0.34
				c0,0.28,0.34,0.45,0.9,0.45c1.8,0,4.61-0.17,5.62-0.17c1.24,0,4.05,0.17,7.03,0.17c0.45,0,0.84-0.17,0.84-0.45
				c0-0.23-0.22-0.34-0.73-0.34c-0.68,0-1.63-0.05-2.3-0.17c-1.29-0.17-1.57-1.07-1.69-2.31c-0.23-1.8-0.23-5.12-0.23-9.05v-17.32
				l5.62,0.11c3.94,0.11,5.17,1.29,5.23,2.36l0.05,0.51c0.06,0.62,0.11,0.84,0.51,0.84c0.23,0,0.34-0.28,0.39-0.67
				c0-1.12,0.11-4.05,0.11-4.95C677.95,287.87,677.89,287.65,677.61,287.65z"/>
			<path class="st0" d="M718.76,287.93c-1.74,0-4.5,0.11-5.06,0.11c-0.06,0-2.87-0.11-5.12-0.11c-0.62,0-0.96,0.06-0.96,0.39
				c0,0.28,0.28,0.34,0.79,0.34c0.45,0,1.24,0.06,1.57,0.17c1.46,0.28,1.85,0.96,1.91,2.36c0.11,1.41,0.11,2.59,0.11,8.99v5.28
				c0,4.39-0.17,8.15-2.59,10.51c-1.8,1.69-4.22,2.25-6.18,2.25c-1.52,0-3.54-0.17-5.57-1.74c-2.19-1.69-3.48-4.27-3.48-10.4v-5.9
				c0-6.41,0-7.59,0.11-8.99c0.11-1.46,0.45-2.19,1.63-2.36c0.56-0.11,0.84-0.17,1.29-0.17c0.45,0,0.73-0.06,0.73-0.34
				c0-0.34-0.34-0.39-0.96-0.39c-1.63,0-4.44,0.11-5.51,0.11c-1.35,0-4.16-0.11-6.52-0.11c-0.68,0-0.96,0.06-0.96,0.39
				c0,0.28,0.28,0.34,0.73,0.34c0.62,0,1.41,0.06,1.74,0.17c1.46,0.28,1.85,0.96,1.91,2.36c0.11,1.41,0.11,2.59,0.11,8.99v6.18
				c0,6.13,1.69,9.28,3.94,11.19c3.26,2.81,7.59,2.92,9.95,2.92c2.87,0,6.07-0.45,9.28-3.04c3.71-3.04,4.22-8.04,4.22-12.71v-4.55
				c0-6.41,0-7.59,0.05-8.99c0.11-1.46,0.45-2.19,1.69-2.36c0.51-0.11,0.79-0.17,1.29-0.17c0.51,0,0.79-0.06,0.79-0.34
				C719.72,287.99,719.43,287.93,718.76,287.93z"/>
			<path class="st0" d="M762.84,319.13c-0.17,0-0.28,0-0.45-0.05c-0.06,0-0.06,0-0.11,0c-0.23,0-0.45,0-0.68-0.06
				c-0.68-0.11-2.53-0.45-5-2.87c-2.64-2.64-5.73-6.41-9.67-11.13c4.5-3.49,5.85-6.35,5.85-9.5c0-2.81-1.74-5-3.04-5.79
				c-2.36-1.57-5.4-1.8-8.21-1.8c-1.35,0-4.72,0.11-6.24,0.11c-0.96,0-3.77-0.11-6.13-0.11c-0.67,0-1.01,0.06-1.01,0.39
				c0,0.28,0.28,0.34,0.79,0.34c0.62,0,1.41,0.06,1.74,0.17c1.46,0.28,1.8,0.96,1.91,2.36c0.11,1.41,0.11,2.59,0.11,8.99v7.42
				c0,3.94,0,7.25-0.23,9.05c-0.23,1.24-0.45,2.14-1.29,2.31c-0.45,0.11-0.96,0.17-1.63,0.17c-0.51,0-0.73,0.11-0.73,0.34
				c0,0.28,0.34,0.45,0.9,0.45c1.8,0,4.61-0.17,5.45-0.17c0.67,0,3.99,0.17,6.58,0.17c0.56,0,0.84-0.17,0.84-0.45
				c0-0.23-0.17-0.34-0.51-0.34c-0.56,0-1.52-0.05-2.19-0.17c-1.35-0.17-1.57-1.07-1.74-2.31c-0.23-1.8-0.23-5.12-0.23-9.05v-0.62
				c0-0.23,0.17-0.34,0.39-0.34l3.88,0.11c0.28,0,0.56,0,0.79,0.28c0.56,0.62,2.64,3.49,4.39,5.85c2.53,3.26,4.22,5.23,6.13,6.18
				c1.18,0.62,2.25,0.84,4.78,0.84h3.03c0.45,0,0.9,0,1.35-0.06h0.17c0.34,0,0.51-0.17,0.51-0.39S763.17,319.13,762.84,319.13z
				 M744.9,304.01c-0.79,0.56-1.41,0.73-3.15,0.73c-1.12,0-2.47-0.17-3.43-0.45c-0.28-0.11-0.39-0.28-0.39-0.79v-12.82
				c0-0.34,0.11-0.51,0.39-0.62c0.45-0.11,1.29-0.17,2.36-0.17c2.64,0,6.86,1.74,6.86,7.76
				C747.54,301.14,746.25,303.05,744.9,304.01z"/>
			<path class="st0" d="M796.57,319.13c-0.56,0-1.24-0.05-1.85-0.17c-0.96-0.23-2.25-0.79-3.94-4.61
				c-2.87-6.41-10.01-23.67-11.08-26.03c-0.45-0.96-0.73-1.35-1.12-1.35c-0.45,0-0.68,0.51-1.24,1.69l-11.19,26.59
				c-0.9,2.14-1.74,3.54-3.77,3.82c-0.06,0-0.06,0-0.11,0c-0.39,0-0.96,0.05-1.29,0.05c-0.34,0-0.56,0.11-0.56,0.34
				c0,0.34,0.28,0.45,0.9,0.45c0.45,0,0.9,0,1.35-0.06h0.17c1.8,0,3.32-0.11,3.71-0.11c1.41,0,3.32,0.17,4.72,0.17
				c0.51,0,0.79-0.11,0.79-0.45c0-0.23-0.17-0.34-0.68-0.34h-0.67c-1.41,0-1.8-0.56-1.8-1.29c0-0.51,0.23-1.52,0.67-2.59l2.42-6.07
				c0.06-0.23,0.17-0.34,0.39-0.34h9.95c0.23,0,0.34,0.11,0.45,0.34l3.54,8.94c0.23,0.51-0.05,0.9-0.39,0.96
				c-0.45,0.05-0.62,0.17-0.62,0.39c0,0.28,0.56,0.28,1.35,0.34c3.54,0.11,6.8,0.11,8.43,0.11c1.63,0,2.02-0.11,2.02-0.45
				C797.13,319.19,796.9,319.13,796.57,319.13z M781.5,306.76h-8.21c-0.17,0-0.23-0.17-0.17-0.34l4.1-10.4
				c0-0.17,0.11-0.39,0.23-0.39c0.17,0,0.23,0.23,0.23,0.39l4.05,10.46C781.78,306.59,781.73,306.76,781.5,306.76z"/>
			<path class="st0" d="M824.84,313.28c-0.34,0-0.45,0.28-0.45,0.67c-0.11,0.79-0.67,1.97-1.18,2.53c-1.12,1.12-2.87,1.18-5.23,1.18
				c-3.48,0-4.61-0.28-5.4-0.96c-0.9-0.73-0.9-3.65-0.9-9.11v-7.42c0-6.41,0-7.59,0.05-8.99c0.11-1.46,0.45-2.19,1.63-2.36
				c0.56-0.11,1.29-0.17,1.74-0.17c0.56,0,0.84-0.06,0.84-0.34c0-0.34-0.34-0.39-0.96-0.39c-1.74,0-5,0.11-6.07,0.11
				c-1.18,0-3.99-0.11-6.07-0.11c-0.68,0-1.01,0.06-1.01,0.39c0,0.28,0.28,0.34,0.79,0.34c0.56,0,1.07,0.06,1.46,0.17
				c1.46,0.28,1.8,0.96,1.91,2.36c0.06,1.41,0.06,2.59,0.06,8.99v7.42c0,3.94,0,7.25-0.23,9.05c-0.17,1.24-0.39,2.14-1.29,2.31
				c-0.39,0.11-0.9,0.17-1.57,0.17c-0.56,0-0.73,0.11-0.73,0.34c0,0.28,0.34,0.45,0.9,0.45c0.9,0,2.08-0.11,3.09-0.11
				c1.07-0.06,2.02-0.06,2.53-0.06c1.85,0,3.43,0.06,5.45,0.17c1.97,0,4.33,0.11,7.53,0.11c2.31,0,2.53-0.23,2.81-1.12
				c0.34-1.24,0.68-4.44,0.68-4.89C825.24,313.51,825.18,313.28,824.84,313.28z"/>
			<path class="st0" d="M887.92,319.13c-0.67,0-1.63-0.05-2.25-0.17c-1.35-0.17-1.63-1.07-1.74-2.31c-0.23-1.8-0.23-5.12-0.23-9.05
				v-7.42c0-6.41,0-7.59,0.06-8.99c0.11-1.46,0.45-2.19,1.69-2.36c0.51-0.11,0.9-0.17,1.29-0.17c0.51,0,0.79-0.06,0.79-0.34
				c0-0.34-0.28-0.39-0.96-0.39c-1.74,0-4.5,0.11-5.57,0.11c-1.24,0-4.05-0.11-6.46-0.11c-0.62,0-0.9,0.06-0.9,0.39
				c0,0.28,0.22,0.34,0.73,0.34c0.62,0,1.41,0.06,1.74,0.17c1.46,0.28,1.85,0.96,1.91,2.36c0.11,1.41,0.11,2.59,0.11,8.99v0.9
				c0,0.23-0.17,0.28-0.28,0.28h-17.04c-0.11,0-0.28-0.06-0.28-0.28v-0.9c0-6.41,0-7.59,0.11-8.99c0.05-1.46,0.45-2.19,1.63-2.36
				c0.56-0.11,0.96-0.17,1.29-0.17c0.56,0,0.79-0.06,0.79-0.34c0-0.34-0.28-0.39-0.9-0.39c-1.74,0-4.55,0.11-5.62,0.11
				c-1.24,0-4.05-0.11-6.41-0.11c-0.62,0-0.96,0.06-0.96,0.39c0,0.28,0.28,0.34,0.79,0.34c0.62,0,1.35,0.06,1.69,0.17
				c1.52,0.28,1.86,0.96,1.97,2.36c0.06,1.41,0.06,2.59,0.06,8.99v7.42c0,3.94,0,7.25-0.23,9.05c-0.17,1.24-0.39,2.14-1.29,2.31
				c-0.39,0.11-0.9,0.17-1.57,0.17c-0.56,0-0.73,0.11-0.73,0.34c0,0.28,0.28,0.45,0.9,0.45c1.74,0,4.55-0.17,5.62-0.17
				c1.24,0,4.05,0.17,6.91,0.17c0.56,0,0.9-0.17,0.9-0.45c0-0.23-0.23-0.34-0.67-0.34c-0.68,0-1.69-0.05-2.31-0.17
				c-1.35-0.17-1.57-1.07-1.74-2.31c-0.23-1.8-0.23-5.12-0.23-9.05v-3.71c0-0.23,0.17-0.23,0.28-0.23h17.04
				c0.11,0,0.28,0.06,0.28,0.23v3.71c0,3.94,0,7.25-0.23,9.05c-0.17,1.24-0.39,2.14-1.29,2.31c-0.39,0.11-0.96,0.17-1.63,0.17
				c-0.51,0-0.67,0.11-0.67,0.34c0,0.28,0.28,0.45,0.9,0.45c1.74,0,4.55-0.17,5.57-0.17c1.29,0,4.05,0.17,6.97,0.17
				c0.56,0,0.9-0.17,0.9-0.45C888.65,319.24,888.43,319.13,887.92,319.13z"/>
			<path class="st0" d="M928.51,319.13c-0.51,0-1.18-0.05-1.85-0.17c-0.96-0.23-2.25-0.79-3.94-4.61
				c-2.81-6.41-9.95-23.67-11.02-26.03c-0.45-0.96-0.73-1.35-1.12-1.35c-0.45,0-0.73,0.51-1.24,1.69l-11.19,26.59
				c-0.9,2.14-1.74,3.54-3.82,3.82c-0.34,0-0.96,0.05-1.35,0.05c-0.39,0-0.56,0.11-0.56,0.34c0,0.34,0.28,0.45,0.84,0.45
				c2.31,0,4.78-0.17,5.29-0.17c1.35,0,3.26,0.17,4.72,0.17c0.45,0,0.73-0.11,0.73-0.45c0-0.23-0.11-0.34-0.68-0.34h-0.67
				c-1.35,0-1.74-0.56-1.74-1.29c0-0.51,0.23-1.52,0.67-2.59l2.36-6.07c0.11-0.23,0.23-0.34,0.45-0.34h9.9
				c0.22,0,0.39,0.11,0.45,0.34l3.6,8.94c0.23,0.51-0.11,0.9-0.39,0.96c-0.45,0.05-0.62,0.17-0.62,0.39c0,0.28,0.51,0.28,1.29,0.34
				c3.6,0.11,6.86,0.11,8.43,0.11c1.69,0,2.08-0.11,2.08-0.45C929.13,319.19,928.91,319.13,928.51,319.13z M913.45,306.76h-8.21
				c-0.17,0-0.23-0.17-0.17-0.34l4.1-10.4c0.06-0.17,0.17-0.39,0.28-0.39s0.17,0.23,0.23,0.39l3.99,10.46
				C913.73,306.59,913.67,306.76,913.45,306.76z"/>
			<path class="st0" d="M968.2,319.13c-0.34,0-0.73-0.05-1.24-0.11c-0.67-0.11-2.53-0.45-5-2.87c-2.64-2.64-5.68-6.41-9.67-11.13
				c4.5-3.49,5.9-6.35,5.9-9.5c0-2.81-1.8-5-3.03-5.79c-2.42-1.57-5.4-1.8-8.21-1.8c-1.41,0-4.78,0.11-6.3,0.11
				c-0.96,0-3.77-0.11-6.13-0.11c-0.67,0-0.96,0.06-0.96,0.39c0,0.28,0.28,0.34,0.73,0.34c0.62,0,1.41,0.06,1.74,0.17
				c1.46,0.28,1.86,0.96,1.91,2.36c0.11,1.41,0.11,2.59,0.11,8.99v7.42c0,3.94,0,7.25-0.23,9.05c-0.17,1.24-0.39,2.14-1.29,2.31
				c-0.39,0.11-0.96,0.17-1.63,0.17c-0.51,0-0.68,0.11-0.68,0.34c0,0.28,0.28,0.45,0.9,0.45c1.74,0,4.55-0.17,5.4-0.17
				c0.67,0,3.99,0.17,6.58,0.17c0.56,0,0.9-0.17,0.9-0.45c0-0.23-0.17-0.34-0.56-0.34c-0.51,0-1.52-0.05-2.19-0.17
				c-1.29-0.17-1.57-1.07-1.69-2.31c-0.23-1.8-0.23-5.12-0.23-9.05v-0.62c0-0.23,0.11-0.34,0.34-0.34l3.88,0.11
				c0.28,0,0.56,0,0.79,0.28c0.56,0.62,2.64,3.49,4.44,5.85c2.47,3.26,4.16,5.23,6.07,6.18c1.18,0.62,2.3,0.84,4.78,0.84h4.27
				c0.51,0,0.84-0.11,0.84-0.45C968.77,319.24,968.54,319.13,968.2,319.13z M950.27,304.01c-0.79,0.56-1.35,0.73-3.15,0.73
				c-1.12,0-2.47-0.17-3.37-0.45c-0.34-0.11-0.39-0.28-0.39-0.79v-12.82c0-0.34,0.06-0.51,0.39-0.62c0.45-0.11,1.24-0.17,2.36-0.17
				c2.64,0,6.8,1.74,6.8,7.76C952.91,301.14,951.62,303.05,950.27,304.01z"/>
			<path class="st0" d="M1003.62,292.76c-4.84-4.83-12.31-4.83-17.88-4.83c-2.64,0-5.45,0.11-6.86,0.11c-1.24,0-4.05-0.11-6.41-0.11
				c-0.67,0-0.96,0.06-0.96,0.39c0,0.28,0.22,0.34,0.73,0.34c0.62,0,1.41,0.06,1.74,0.17c1.46,0.28,1.8,0.96,1.91,2.36
				c0.11,1.41,0.11,2.59,0.11,8.99v7.42c0,3.94,0,7.25-0.23,9.05c-0.17,1.24-0.39,2.14-1.29,2.31c-0.39,0.11-0.96,0.17-1.63,0.17
				c-0.51,0-0.73,0.11-0.73,0.34c0,0.28,0.34,0.45,0.9,0.45c0.9,0,2.08-0.11,3.09-0.11c1.07-0.06,2.02-0.06,2.53-0.06
				c1.12,0,2.7,0.17,4.39,0.28c1.69,0.11,3.54,0.23,5.12,0.23c8.26,0,12.87-2.98,14.95-4.95c2.47-2.42,4.84-6.46,4.84-11.81
				C1007.95,298.44,1005.87,294.96,1003.62,292.76z M998.23,315.25c-2.64,2.19-5.68,3.04-10.23,3.04c-3.54,0-5.28-0.9-5.85-1.69
				c-0.34-0.45-0.45-2.14-0.51-3.2c0-0.84-0.06-4.05-0.06-8.55v-5.34c0-3.32,0-7.03,0.06-8.49c0-0.45,0.11-0.67,0.51-0.84
				c0.34-0.17,2.02-0.28,2.92-0.28c3.43,0,8.55,0.51,12.65,4.22c1.91,1.74,4.27,5.23,4.27,10.63
				C1001.99,309.07,1001.09,312.95,998.23,315.25z"/>
			<path class="st0" d="M1063.66,287.93c-1.52,0-3.43,0.11-3.71,0.11c-0.39,0-2.3-0.11-4.67-0.11c-0.67,0-1.01,0.06-1.01,0.39
				c0,0.23,0.34,0.34,0.79,0.34c1.69,0,2.14,0.62,2.14,1.29c0,0.56-0.17,1.46-0.45,2.47c-1.57,4.95-5.17,16.08-5.96,18.95h-0.11
				l-9.28-21.31c-0.56-1.35-0.79-1.97-1.29-1.97c-0.34,0-0.68,0.34-1.12,1.52l-8.66,22.04h-0.11c-0.79-2.36-4.95-15.18-5.73-17.99
				c-0.51-1.91-0.96-3.32-0.96-3.88c0-0.45,0.06-0.79,0.51-0.96c0.28-0.17,0.73-0.17,1.07-0.17c0.45,0,0.84,0,0.84-0.34
				c0-0.28-0.34-0.39-0.96-0.39c-2.59,0-4.55,0.11-4.95,0.11s-2.87-0.11-5.17-0.11c-0.62,0-0.96,0.06-0.96,0.39
				c0,0.34,0.23,0.34,0.68,0.34c0.39,0,1.29,0.11,1.8,0.39c0.62,0.45,1.12,1.46,1.63,3.04l9.44,26.82c0.45,1.12,0.62,1.57,1.07,1.57
				c0.51,0,0.73-0.51,1.57-2.25c1.91-3.88,7.87-18.83,8.71-21.03h0.06l9.28,21.19c0.68,1.57,0.96,2.08,1.41,2.08
				c0.56,0,0.79-0.51,1.29-1.97c2.19-6.35,6.86-19.79,8.94-25.13c0.9-2.42,1.41-4.1,2.47-4.5c0.51-0.17,1.13-0.23,1.57-0.23
				c0.39,0,0.62-0.11,0.62-0.39C1064.45,287.99,1064.11,287.93,1063.66,287.93z"/>
			<path class="st0" d="M1099.03,319.13c-0.51,0-1.18-0.05-1.86-0.17c-0.96-0.23-2.25-0.79-3.94-4.61
				c-2.87-6.41-10.01-23.67-11.07-26.03c-0.45-0.96-0.68-1.35-1.12-1.35c-0.39,0-0.68,0.51-1.24,1.69l-11.19,26.59
				c-0.9,2.14-1.74,3.54-3.77,3.82c-0.39,0-1.01,0.05-1.41,0.05c-0.34,0-0.51,0.11-0.51,0.34c0,0.34,0.23,0.45,0.84,0.45
				c2.31,0,4.78-0.17,5.23-0.17c1.41,0,3.32,0.17,4.72,0.17c0.51,0,0.79-0.11,0.79-0.45c0-0.23-0.17-0.34-0.68-0.34h-0.68
				c-1.41,0-1.8-0.56-1.8-1.29c0-0.51,0.23-1.52,0.67-2.59l2.42-6.07c0.11-0.23,0.17-0.34,0.39-0.34h9.95
				c0.23,0,0.34,0.11,0.45,0.34l3.54,8.94c0.23,0.51-0.06,0.9-0.39,0.96c-0.45,0.05-0.62,0.17-0.62,0.39c0,0.28,0.56,0.28,1.35,0.34
				c3.54,0.11,6.8,0.11,8.43,0.11c1.63,0,2.02-0.11,2.02-0.45C1099.59,319.19,1099.36,319.13,1099.03,319.13z M1083.96,306.76h-8.21
				c-0.17,0-0.22-0.17-0.17-0.34l4.1-10.4c0.06-0.17,0.11-0.39,0.28-0.39c0.11,0,0.17,0.23,0.23,0.39l3.99,10.46
				C1084.24,306.59,1084.18,306.76,1083.96,306.76z"/>
			<path class="st0" d="M1138.72,319.13c-0.39,0-0.79-0.05-1.29-0.11c-0.62-0.11-2.47-0.45-4.95-2.87
				c-2.64-2.64-5.73-6.41-9.67-11.13c4.5-3.49,5.85-6.35,5.85-9.5c0-2.81-1.74-5-3.04-5.79c-2.36-1.57-5.4-1.8-8.21-1.8
				c-1.35,0-4.72,0.11-6.24,0.11c-0.96,0-3.77-0.11-6.13-0.11c-0.68,0-1.01,0.06-1.01,0.39c0,0.28,0.28,0.34,0.79,0.34
				c0.62,0,1.41,0.06,1.74,0.17c1.46,0.28,1.8,0.96,1.91,2.36c0.11,1.41,0.11,2.59,0.11,8.99v7.42c0,3.94,0,7.25-0.22,9.05
				c-0.23,1.24-0.45,2.14-1.29,2.31c-0.45,0.11-0.96,0.17-1.63,0.17c-0.51,0-0.73,0.11-0.73,0.34c0,0.28,0.34,0.45,0.9,0.45
				c1.8,0,4.61-0.17,5.45-0.17c0.67,0,3.99,0.17,6.58,0.17c0.56,0,0.84-0.17,0.84-0.45c0-0.23-0.17-0.34-0.51-0.34
				c-0.56,0-1.52-0.05-2.19-0.17c-1.35-0.17-1.57-1.07-1.74-2.31c-0.23-1.8-0.23-5.12-0.23-9.05v-0.62c0-0.23,0.17-0.34,0.39-0.34
				l3.82,0.11c0.34,0,0.62,0,0.84,0.28c0.56,0.62,2.64,3.49,4.39,5.85c2.53,3.26,4.22,5.23,6.13,6.18c1.18,0.62,2.25,0.84,4.78,0.84
				h4.22c0.56,0,0.84-0.11,0.84-0.45C1139.22,319.24,1139.05,319.13,1138.72,319.13z M1120.78,304.01
				c-0.79,0.56-1.41,0.73-3.15,0.73c-1.13,0-2.47-0.17-3.43-0.45c-0.28-0.11-0.39-0.28-0.39-0.79v-12.82c0-0.34,0.11-0.51,0.39-0.62
				c0.45-0.11,1.24-0.17,2.36-0.17c2.64,0,6.86,1.74,6.86,7.76C1123.43,301.14,1122.13,303.05,1120.78,304.01z"/>
			<path class="st0" d="M1164.13,313.45c-0.28,0-0.39,0.17-0.45,0.67c-0.34,1.69-0.84,2.59-2.02,3.09
				c-1.18,0.51-3.04,0.51-4.22,0.51c-4.55,0-5.23-0.62-5.34-3.54c-0.06-1.24,0-5.12,0-6.58v-3.32c0-0.23,0.06-0.45,0.28-0.45
				c1.07,0,5.45,0.05,6.35,0.17c1.63,0.17,2.25,0.79,2.47,1.63c0.11,0.56,0.11,1.12,0.17,1.52c0,0.23,0.11,0.39,0.39,0.39
				c0.39,0,0.39-0.45,0.39-0.79c0-0.34,0.17-2.02,0.23-2.87c0.17-2.14,0.34-2.81,0.34-3.09c0-0.23-0.11-0.34-0.34-0.34
				s-0.39,0.23-0.68,0.56c-0.39,0.45-1.07,0.56-2.14,0.62c-1.07,0.11-6.18,0.11-7.14,0.11c-0.28,0-0.34-0.17-0.34-0.45v-10.74
				c0-0.28,0.11-0.39,0.34-0.39c0.9,0,5.57,0.06,6.3,0.17c2.25,0.23,2.7,0.73,3.04,1.52c0.17,0.51,0.22,1.24,0.22,1.52
				c0,0.39,0.11,0.56,0.39,0.56c0.34,0,0.45-0.22,0.45-0.45c0.11-0.51,0.23-2.36,0.23-2.81c0.17-1.91,0.39-2.42,0.39-2.7
				c0-0.23-0.06-0.39-0.28-0.39c-0.23,0-0.51,0.11-0.73,0.17c-0.34,0.06-1.07,0.17-1.91,0.23c-0.84,0.06-9.73,0.06-11.13,0.06
				c-0.62,0-1.69-0.06-2.81-0.06c-1.12,0-2.42-0.06-3.6-0.06c-0.68,0-1.01,0.06-1.01,0.39c0,0.28,0.28,0.34,0.79,0.34
				c0.62,0,1.35,0.06,1.74,0.17c1.46,0.28,1.8,0.96,1.91,2.36c0.06,1.41,0.06,2.59,0.06,8.99v7.42c0,3.94,0,7.25-0.23,9.05
				c-0.17,1.24-0.39,2.14-1.29,2.31c-0.39,0.11-0.9,0.17-1.57,0.17c-0.56,0-0.73,0.11-0.73,0.34c0,0.28,0.34,0.45,0.9,0.45
				c0.9,0,2.02-0.11,3.09-0.11c1.07-0.06,2.02-0.06,2.53-0.06c1.35,0,2.7,0.06,4.61,0.17c1.91,0,4.39,0.11,7.76,0.11
				c1.69,0,2.08,0,2.36-1.12c0.23-0.84,0.62-3.71,0.62-4.67C1164.52,313.79,1164.52,313.45,1164.13,313.45z"/>
		</g>
		<g>
			<path class="st0" d="M813.15,266.9c-0.23,3.09-0.73,3.54-1.69,3.54c-1.46,0-2.87-0.67-6.35-3.54H813.15z"/>
		</g>
		<g>
			<path class="st0" d="M938.13,266.9c-9.22,2.36-19.9,3.82-32.44,3.82c-10.57,0-23.67-0.84-34.29-1.41
				c-10.62-0.84-19-1.41-20.07-1.41c-0.62,0-5.06,0.28-10.06,0.28c-5,0.28-10.91,0.56-14.78,0.56c-2.47,0-3.88-0.51-3.94-1.85
				H938.13z"/>
		</g>
	</g>
	<g>
		<path class="st1" d="M303.98,152.27c-1.57,17.09-4.72,33.56-11.64,49.36c-2.14,4.89-5.57,12.82-11.75,13.27
			c-4.16,0.34-7.81-3.09-10.79-5.51c-3.88-3.09-7.53-6.41-11.13-9.78c-7.08-6.69-13.77-13.77-20.58-20.75
			c-11.35-11.64-22.43-23.5-33.34-35.47c-7.36-8.1-15.4-15.97-22.15-24.62c20.3,25.86,40.53,51.83,60.1,78.2
			c2.92,3.99,5.79,7.93,8.6,11.98c1.63,2.36,3.65,4.78,4.5,7.59c0.51,1.86,0.34,3.99-0.96,5.45c-0.73,0.79-1.74,1.35-2.75,1.74
			c-2.47,0.96-5.12,1.35-7.76,1.57c-14.56,1.41-30.19-2.42-44.47-5.4c-16.47-3.43-32.83-7.76-48.74-13.21
			c-42-14.28-119.24-38.68-126.44-40.93c9.45,3.65,147.8,57.01,175.57,71.29c6.35,3.26,12.76,6.41,18.83,10.18
			c4.89,3.03,10.63,6.58,14.11,11.24c0.62,0.84,1.12,1.74,1.24,2.75c0.17,1.24-0.34,2.47-1.12,3.48
			c-3.99,4.84-10.96,8.15-16.3,11.24c-5.68,3.26-11.41,6.41-17.2,9.33c-12.82,6.52-25.97,12.37-39.41,17.43
			c-8.1,3.04-16.36,6.18-24.79,8.26c8.77-1.97,79.61-18.05,102.77-18.05c5.9-0.34,15.68-0.34,18.38,6.18
			c1.74,4.1-0.56,7.93-2.81,11.3c-1.52,2.3-3.26,4.5-5.06,6.52H21.36V41.52l284.02,0.79c0,21.36-0.51,42.73,0.06,64.03
			C305.89,121.69,305.38,137.04,303.98,152.27z"/>
	</g>
</g>
</svg>
